<svg xmlns="http://www.w3.org/2000/svg" viewBox="0 0 64 64" width="64" height="64">
  <rect width="64" height="64" fill="#f4eae1" rx="11"/>
  <g transform="translate(5.1,5.1) scale(0.517)">
    <path d="M50,95 C50,80 50,60 52,20" stroke="#6c7c6a" stroke-width="3.5" fill="none" stroke-linecap="round"/>
    <path d="M52,24 C44,20 30,14 18,8 C30,12 42,19 51,27" fill="#6c7c6a"/>
    <path d="M52,34 C43,28 27,20 14,16 C27,22 41,30 51,37" fill="#6c7c6a"/>
    <path d="M52,44 C42,38 25,32 11,30 C24,34 41,42 51,47" fill="#6c7c6a"/>
    <path d="M52,55 C42,50 24,46 10,46 C23,48 41,53 51,57" fill="#6c7c6a"/>
    <path d="M52,66 C43,63 27,61 14,63 C26,62 42,65 51,67" fill="#6c7c6a"/>
    <path d="M51,37 C61,28 77,20 90,16 C77,22 63,30 53,37" fill="#6c7c6a"/>
    <path d="M51,47 C62,38 79,32 93,30 C80,34 63,42 53,47" fill="#6c7c6a"/>
    <path d="M51,57 C62,50 80,46 94,46 C81,48 63,53 53,57" fill="#6c7c6a"/>
    <path d="M51,67 C61,63 77,61 90,63 C78,62 62,65 53,67" fill="#6c7c6a"/>
  </g>
</svg>