<svg xmlns="http://www.w3.org/2000/svg" viewBox="0 0 512 512" width="512" height="512">
  <rect width="512" height="512" fill="#ffffff" rx="92"/>
  <!-- Leaf scaled to fit icon -->
  <g transform="translate(118,20) scale(2.00)">
    <path d="M50,95 C50,80 50,60 52,20" stroke="#6c7c6a" stroke-width="3" fill="none" stroke-linecap="round"/>
    <path d="M52,24 C44,20 30,14 18,8 C30,12 42,19 51,27" fill="#6c7c6a"/>
    <path d="M52,34 C43,28 27,20 14,16 C27,22 41,30 51,37" fill="#6c7c6a"/>
    <path d="M52,44 C42,38 25,32 11,30 C24,34 41,42 51,47" fill="#6c7c6a"/>
    <path d="M52,55 C42,50 24,46 10,46 C23,48 41,53 51,57" fill="#6c7c6a"/>
    <path d="M52,66 C43,63 27,61 14,63 C26,62 42,65 51,67" fill="#6c7c6a"/>
    <path d="M52,76 C44,74 32,74 22,77 C31,74 43,75 51,77" fill="#6c7c6a"/>
    <path d="M52,27 C60,20 74,14 86,8 C74,12 62,19 53,27" fill="#6c7c6a"/>
    <path d="M51,37 C61,28 77,20 90,16 C77,22 63,30 53,37" fill="#6c7c6a"/>
    <path d="M51,47 C62,38 79,32 93,30 C80,34 63,42 53,47" fill="#6c7c6a"/>
    <path d="M51,57 C62,50 80,46 94,46 C81,48 63,53 53,57" fill="#6c7c6a"/>
    <path d="M51,67 C61,63 77,61 90,63 C78,62 62,65 53,67" fill="#6c7c6a"/>
    <path d="M51,77 C60,74 72,74 82,77 C73,74 61,75 53,77" fill="#6c7c6a"/>
  </g>
  <!-- E lettermark -->
  <text x="256" y="450"
    font-family="Cormorant Garamond, Garamond, Georgia, serif"
    font-size="194" font-weight="600" letter-spacing="4"
    text-anchor="middle" fill="#6c7c6a">E</text>
</svg>