<svg xmlns="http://www.w3.org/2000/svg" viewBox="0 0 1200 630" width="1200" height="630">
  <rect width="1200" height="630" fill="#f4eae1"/>
  <!-- Subtle texture grid -->
  <rect width="1200" height="630" fill="url(#grain)" opacity="0.04"/>
  <!-- Decorative corner leaves -->
  <g transform="translate(-20,-20) scale(1.4)" opacity="0.15">
    <path d="M50,95 C50,80 50,60 52,20" stroke="#6c7c6a" stroke-width="2" fill="none" stroke-linecap="round"/>
    <path d="M52,24 C44,20 30,14 18,8 C30,12 42,19 51,27" fill="#6c7c6a"/>
    <path d="M52,34 C43,28 27,20 14,16 C27,22 41,30 51,37" fill="#6c7c6a"/>
    <path d="M52,44 C42,38 25,32 11,30 C24,34 41,42 51,47" fill="#6c7c6a"/>
    <path d="M52,55 C42,50 24,46 10,46 C23,48 41,53 51,57" fill="#6c7c6a"/>
    <path d="M52,27 C60,20 74,14 86,8 C74,12 62,19 53,27" fill="#6c7c6a"/>
    <path d="M51,37 C61,28 77,20 90,16 C77,22 63,30 53,37" fill="#6c7c6a"/>
    <path d="M51,47 C62,38 79,32 93,30 C80,34 63,42 53,47" fill="#6c7c6a"/>
    <path d="M51,57 C62,50 80,46 94,46 C81,48 63,53 53,57" fill="#6c7c6a"/>
    <path d="M51,67 C61,63 77,61 90,63 C78,62 62,65 53,67" fill="#6c7c6a"/>
  </g>
  <!-- Main leaf large -->
  <g transform="translate(495,60) scale(2.1)">
    <path d="M50,95 C50,80 50,60 52,20" stroke="#6c7c6a" stroke-width="2.2" fill="none" stroke-linecap="round"/>
    <path d="M52,24 C44,20 30,14 18,8 C30,12 42,19 51,27" fill="#6c7c6a"/>
    <path d="M52,34 C43,28 27,20 14,16 C27,22 41,30 51,37" fill="#6c7c6a"/>
    <path d="M52,44 C42,38 25,32 11,30 C24,34 41,42 51,47" fill="#6c7c6a"/>
    <path d="M52,55 C42,50 24,46 10,46 C23,48 41,53 51,57" fill="#6c7c6a"/>
    <path d="M52,66 C43,63 27,61 14,63 C26,62 42,65 51,67" fill="#6c7c6a"/>
    <path d="M52,76 C44,74 32,74 22,77 C31,74 43,75 51,77" fill="#6c7c6a"/>
    <path d="M52,27 C60,20 74,14 86,8 C74,12 62,19 53,27" fill="#6c7c6a"/>
    <path d="M51,37 C61,28 77,20 90,16 C77,22 63,30 53,37" fill="#6c7c6a"/>
    <path d="M51,47 C62,38 79,32 93,30 C80,34 63,42 53,47" fill="#6c7c6a"/>
    <path d="M51,57 C62,50 80,46 94,46 C81,48 63,53 53,57" fill="#6c7c6a"/>
    <path d="M51,67 C61,63 77,61 90,63 C78,62 62,65 53,67" fill="#6c7c6a"/>
    <path d="M51,77 C60,74 72,74 82,77 C73,74 61,75 53,77" fill="#6c7c6a"/>
  </g>
  <!-- EVALIA -->
  <text x="600" y="395"
    font-family="Cormorant Garamond, Garamond, Georgia, serif"
    font-size="130" font-weight="600" letter-spacing="20"
    text-anchor="middle" fill="#6c7c6a">EVALIA</text>
  <!-- Tagline -->
  <text x="600" y="445"
    font-family="Cormorant Garamond, Garamond, Georgia, serif"
    font-size="26" font-weight="400" letter-spacing="8"
    text-anchor="middle" fill="#6c7c6a">ESCAPE THE ORDINARY</text>
  <!-- Tilde -->
  <path d="M505,478 C524,468 538,488 557,478 C576,468 590,488 609,478 C628,468 642,488 661,478 C680,468 694,488 700,478"
    stroke="#6c7c6a" stroke-width="2.5" fill="none" stroke-linecap="round"/>
  <!-- Mauritius tagline -->
  <text x="600" y="530"
    font-family="Cormorant Garamond, Garamond, Georgia, serif"
    font-size="18" font-weight="400" letter-spacing="4"
    text-anchor="middle" fill="#6c7c6a" opacity="0.65">YOUR MAURITIUS · PERFECTLY ARRANGED</text>
</svg>